<?xml version="1.0" standalone="no"?>
<!DOCTYPE svg PUBLIC "-//W3C//DTD SVG 20010904//EN"
 "http://www.w3.org/TR/2001/REC-SVG-20010904/DTD/svg10.dtd">
<svg version="1.0" xmlns="http://www.w3.org/2000/svg"
 width="512.000000pt" height="512.000000pt" viewBox="0 0 512.000000 512.000000"
 preserveAspectRatio="xMidYMid meet">
<metadata>
Created by potrace 1.11, written by Peter Selinger 2001-2013
</metadata>
<g transform="translate(0.000000,512.000000) scale(0.100000,-0.100000)"
fill="#000000" stroke="none">
<path d="M2201 5110 c-1288 -59 -1871 -423 -2084 -1300 -85 -348 -126 -870
-113 -1440 10 -425 34 -688 86 -952 207 -1035 874 -1418 2470 -1418 1453 0
2127 319 2395 1133 73 221 116 470 147 842 18 229 15 972 -6 1215 -49 572
-145 914 -335 1196 -252 373 -657 582 -1321 678 -283 42 -868 63 -1239 46z
m905 -794 c322 -41 556 -115 731 -232 283 -188 420 -467 480 -976 22 -185 25
-848 5 -1038 -47 -443 -138 -696 -319 -890 -249 -266 -624 -379 -1318 -397
-652 -16 -1109 66 -1397 252 -383 248 -524 712 -505 1660 9 409 39 643 113
865 159 476 512 698 1219 765 191 19 822 13 991 -9z"/>
<path d="M2141 3538 c-25 -13 -51 -33 -59 -45 -14 -23 -14 -23 30 -23 91 0
138 -37 138 -108 0 -56 -72 -415 -86 -431 -11 -12 -250 -51 -316 -51 -72 0
-78 2 -107 30 -17 17 -33 46 -37 65 -7 38 -11 41 -35 22 -78 -60 -33 -234 75
-287 56 -26 63 -26 123 13 49 32 244 102 263 95 4 -2 -11 -60 -35 -129 -109
-320 -266 -657 -368 -791 -88 -116 -100 -141 -95 -199 11 -107 75 -133 143
-57 81 89 299 591 440 1013 37 110 69 202 70 203 8 9 225 41 276 42 116 0 197
-46 234 -133 52 -124 34 -511 -32 -722 -54 -172 -113 -254 -184 -255 -31 0
-177 70 -289 139 -82 51 -84 52 -102 33 -19 -18 -17 -20 74 -94 122 -100 204
-186 212 -225 4 -17 19 -44 32 -59 23 -24 30 -26 74 -21 63 8 103 29 154 82
119 124 201 369 228 681 14 162 0 344 -33 444 -29 85 -100 159 -179 186 -62
20 -215 25 -356 11 l-81 -9 49 178 c36 129 57 189 79 219 29 41 30 44 16 77
-25 59 -118 111 -217 123 -46 5 -62 2 -99 -17z"/>
<path d="M3091 3128 c-8 -13 -10 -23 -4 -25 5 -2 44 -26 85 -53 129 -85 224
-206 273 -347 30 -84 55 -235 55 -325 0 -81 13 -113 52 -129 78 -32 130 44
129 188 -1 279 -170 533 -436 659 -120 57 -137 60 -154 32z"/>
</g>
</svg>
